<mxfile host="app.diagrams.net" modified="2024-09-12T07:25:39.789Z" agent="Mozilla/5.0 (Windows NT 10.0; Win64; x64) AppleWebKit/537.36 (KHTML, like Gecko) Chrome/114.0.0.0 YaBrowser/23.7.1.1266 (corp) Yowser/2.5 Safari/537.36" etag="ZxBeCT5QTl-hMdscoYx4" version="24.2.1" type="device">
  <diagram name="Страница — 1" id="Su_q3M60iCnZ5nP7u91P">
    <mxGraphModel dx="3690" dy="2789" grid="1" gridSize="10" guides="1" tooltips="1" connect="1" arrows="1" fold="1" page="1" pageScale="1" pageWidth="827" pageHeight="1169" math="0" shadow="0">
      <root>
        <mxCell id="0" />
        <mxCell id="1" parent="0" />
        <mxCell id="KKZwdaUDiKassP_woLJ3-29" style="edgeStyle=orthogonalEdgeStyle;rounded=0;orthogonalLoop=1;jettySize=auto;html=1;exitX=0.5;exitY=1;exitDx=0;exitDy=0;entryX=0.5;entryY=0;entryDx=0;entryDy=0;" edge="1" parent="1" source="KKZwdaUDiKassP_woLJ3-1" target="KKZwdaUDiKassP_woLJ3-2">
          <mxGeometry relative="1" as="geometry" />
        </mxCell>
        <mxCell id="KKZwdaUDiKassP_woLJ3-1" value="&lt;p class=&quot;MsoNormal&quot;&gt;Вы едете в маршрутке после&lt;br&gt;работы домой. От усталости ваши&amp;nbsp; глаза постепенно слипаются и вы постепенно погружаетесь в сон.&lt;/p&gt;" style="rounded=0;whiteSpace=wrap;html=1;" vertex="1" parent="1">
          <mxGeometry x="260" y="-1150" width="260" height="80" as="geometry" />
        </mxCell>
        <mxCell id="KKZwdaUDiKassP_woLJ3-30" style="edgeStyle=orthogonalEdgeStyle;rounded=0;orthogonalLoop=1;jettySize=auto;html=1;entryX=0.5;entryY=0;entryDx=0;entryDy=0;" edge="1" parent="1" source="KKZwdaUDiKassP_woLJ3-2" target="KKZwdaUDiKassP_woLJ3-5">
          <mxGeometry relative="1" as="geometry" />
        </mxCell>
        <mxCell id="KKZwdaUDiKassP_woLJ3-2" value="&lt;p class=&quot;MsoNormal&quot;&gt;Проснувшись вы&lt;br&gt;обнаруживаете что вы одни в трамвае. &quot;Неужели меня проста так здесь оставили?&quot;&amp;nbsp;&lt;/p&gt;&lt;p style=&quot;text-align:justify;text-justify:inter-ideograph;&lt;br/&gt;text-indent:120.0pt;mso-char-indent-count:12.0&quot; class=&quot;MsoNormal&quot;&gt;&lt;/p&gt;" style="rounded=0;whiteSpace=wrap;html=1;" vertex="1" parent="1">
          <mxGeometry x="290" y="-1040" width="200" height="90" as="geometry" />
        </mxCell>
        <mxCell id="KKZwdaUDiKassP_woLJ3-31" style="edgeStyle=orthogonalEdgeStyle;rounded=0;orthogonalLoop=1;jettySize=auto;html=1;exitX=1;exitY=0.5;exitDx=0;exitDy=0;entryX=0.5;entryY=0;entryDx=0;entryDy=0;" edge="1" parent="1" source="KKZwdaUDiKassP_woLJ3-5" target="KKZwdaUDiKassP_woLJ3-6">
          <mxGeometry relative="1" as="geometry" />
        </mxCell>
        <mxCell id="KKZwdaUDiKassP_woLJ3-45" style="edgeStyle=orthogonalEdgeStyle;rounded=0;orthogonalLoop=1;jettySize=auto;html=1;exitX=0;exitY=0.5;exitDx=0;exitDy=0;entryX=0.5;entryY=0;entryDx=0;entryDy=0;" edge="1" parent="1" source="KKZwdaUDiKassP_woLJ3-5" target="KKZwdaUDiKassP_woLJ3-36">
          <mxGeometry relative="1" as="geometry" />
        </mxCell>
        <mxCell id="KKZwdaUDiKassP_woLJ3-5" value="&lt;br&gt;&lt;br&gt;&lt;br&gt;&lt;p style=&quot;&quot; class=&quot;MsoNormal&quot;&gt;&lt;span style=&quot;mso-ansi-language:&lt;br/&gt;RU&quot;&gt;Остаться в маршрутке?..&lt;/span&gt;&lt;/p&gt;&lt;br&gt;&lt;br&gt;&lt;div&gt;&lt;br&gt;&lt;/div&gt;" style="rhombus;whiteSpace=wrap;html=1;align=center;" vertex="1" parent="1">
          <mxGeometry x="330" y="-920" width="120" height="110" as="geometry" />
        </mxCell>
        <mxCell id="KKZwdaUDiKassP_woLJ3-28" style="edgeStyle=orthogonalEdgeStyle;rounded=0;orthogonalLoop=1;jettySize=auto;html=1;entryX=0.5;entryY=0;entryDx=0;entryDy=0;" edge="1" parent="1" source="KKZwdaUDiKassP_woLJ3-6" target="KKZwdaUDiKassP_woLJ3-7">
          <mxGeometry relative="1" as="geometry" />
        </mxCell>
        <mxCell id="KKZwdaUDiKassP_woLJ3-6" value="Вы решили остаться в маршрутке и подождать. Не могли же про вас забыть.&lt;div&gt;Спустя некоторое время с наружи издается какие-то звуки.&lt;/div&gt;" style="rounded=0;whiteSpace=wrap;html=1;" vertex="1" parent="1">
          <mxGeometry x="540" y="-830" width="210" height="90" as="geometry" />
        </mxCell>
        <mxCell id="KKZwdaUDiKassP_woLJ3-20" style="edgeStyle=orthogonalEdgeStyle;rounded=0;orthogonalLoop=1;jettySize=auto;html=1;exitX=1;exitY=0.5;exitDx=0;exitDy=0;entryX=0.5;entryY=0;entryDx=0;entryDy=0;" edge="1" parent="1" source="KKZwdaUDiKassP_woLJ3-7" target="KKZwdaUDiKassP_woLJ3-11">
          <mxGeometry relative="1" as="geometry" />
        </mxCell>
        <mxCell id="KKZwdaUDiKassP_woLJ3-32" style="edgeStyle=orthogonalEdgeStyle;rounded=0;orthogonalLoop=1;jettySize=auto;html=1;exitX=0;exitY=0.5;exitDx=0;exitDy=0;" edge="1" parent="1" source="KKZwdaUDiKassP_woLJ3-7" target="KKZwdaUDiKassP_woLJ3-8">
          <mxGeometry relative="1" as="geometry" />
        </mxCell>
        <mxCell id="KKZwdaUDiKassP_woLJ3-7" value="Проверить?" style="rhombus;whiteSpace=wrap;html=1;" vertex="1" parent="1">
          <mxGeometry x="605" y="-700" width="80" height="80" as="geometry" />
        </mxCell>
        <mxCell id="KKZwdaUDiKassP_woLJ3-22" style="edgeStyle=orthogonalEdgeStyle;rounded=0;orthogonalLoop=1;jettySize=auto;html=1;exitX=0.5;exitY=1;exitDx=0;exitDy=0;entryX=0.5;entryY=0;entryDx=0;entryDy=0;" edge="1" parent="1">
          <mxGeometry relative="1" as="geometry">
            <mxPoint x="484.6" y="-549" as="sourcePoint" />
            <mxPoint x="484.6" y="-499" as="targetPoint" />
          </mxGeometry>
        </mxCell>
        <mxCell id="KKZwdaUDiKassP_woLJ3-8" value="&quot;Скорее всего это вернулся водитель&quot;, думаете вы и не выходите на улицу.&amp;nbsp;" style="rounded=0;whiteSpace=wrap;html=1;" vertex="1" parent="1">
          <mxGeometry x="400" y="-619" width="170" height="70" as="geometry" />
        </mxCell>
        <mxCell id="KKZwdaUDiKassP_woLJ3-9" value="Но через некоторое время звуки становятся всё интенсивнее. Кто-то явно пытается выломать дверь. Через время она поддается и последнее, что вы видите это огромное черное существо, несущееся к вам" style="rounded=0;whiteSpace=wrap;html=1;" vertex="1" parent="1">
          <mxGeometry x="360" y="-500" width="235" height="120" as="geometry" />
        </mxCell>
        <mxCell id="KKZwdaUDiKassP_woLJ3-10" value="Смерть" style="ellipse;shape=cloud;whiteSpace=wrap;html=1;" vertex="1" parent="1">
          <mxGeometry x="410" y="-360" width="120" height="80" as="geometry" />
        </mxCell>
        <mxCell id="KKZwdaUDiKassP_woLJ3-19" style="edgeStyle=orthogonalEdgeStyle;rounded=0;orthogonalLoop=1;jettySize=auto;html=1;exitX=0.5;exitY=1;exitDx=0;exitDy=0;" edge="1" parent="1" source="KKZwdaUDiKassP_woLJ3-11" target="KKZwdaUDiKassP_woLJ3-12">
          <mxGeometry relative="1" as="geometry" />
        </mxCell>
        <mxCell id="KKZwdaUDiKassP_woLJ3-11" value="Вы решаете выйти и проверить, что это за звуки" style="rounded=0;whiteSpace=wrap;html=1;" vertex="1" parent="1">
          <mxGeometry x="770" y="-620" width="120" height="60" as="geometry" />
        </mxCell>
        <mxCell id="KKZwdaUDiKassP_woLJ3-18" style="edgeStyle=orthogonalEdgeStyle;rounded=0;orthogonalLoop=1;jettySize=auto;html=1;exitX=0.5;exitY=1;exitDx=0;exitDy=0;entryX=0.5;entryY=0;entryDx=0;entryDy=0;" edge="1" parent="1" source="KKZwdaUDiKassP_woLJ3-12" target="KKZwdaUDiKassP_woLJ3-13">
          <mxGeometry relative="1" as="geometry" />
        </mxCell>
        <mxCell id="KKZwdaUDiKassP_woLJ3-12" value="На улице вы видите огромное существо, похожее на медведя, которое ходит вокруг маршрутки." style="rounded=0;whiteSpace=wrap;html=1;" vertex="1" parent="1">
          <mxGeometry x="750" y="-524" width="160" height="70" as="geometry" />
        </mxCell>
        <mxCell id="KKZwdaUDiKassP_woLJ3-16" style="edgeStyle=orthogonalEdgeStyle;rounded=0;orthogonalLoop=1;jettySize=auto;html=1;exitX=0;exitY=0.5;exitDx=0;exitDy=0;" edge="1" parent="1" source="KKZwdaUDiKassP_woLJ3-13" target="KKZwdaUDiKassP_woLJ3-15">
          <mxGeometry relative="1" as="geometry" />
        </mxCell>
        <mxCell id="KKZwdaUDiKassP_woLJ3-17" style="edgeStyle=orthogonalEdgeStyle;rounded=0;orthogonalLoop=1;jettySize=auto;html=1;exitX=1;exitY=0.5;exitDx=0;exitDy=0;" edge="1" parent="1" source="KKZwdaUDiKassP_woLJ3-13" target="KKZwdaUDiKassP_woLJ3-14">
          <mxGeometry relative="1" as="geometry" />
        </mxCell>
        <mxCell id="KKZwdaUDiKassP_woLJ3-13" value="Что делать?" style="rhombus;whiteSpace=wrap;html=1;" vertex="1" parent="1">
          <mxGeometry x="790" y="-430" width="80" height="80" as="geometry" />
        </mxCell>
        <mxCell id="KKZwdaUDiKassP_woLJ3-14" value="Вы решили бежать, но не успев сделать и шага падаете от лап монстра. Видимо он учуял ваш запах." style="rounded=0;whiteSpace=wrap;html=1;" vertex="1" parent="1">
          <mxGeometry x="890" y="-320" width="140" height="80" as="geometry" />
        </mxCell>
        <mxCell id="KKZwdaUDiKassP_woLJ3-15" value="Вы решили вернуться в салон, но не успев сделать и шага падаете от лап монстра. Видимо он учуял ваш запах." style="rounded=0;whiteSpace=wrap;html=1;" vertex="1" parent="1">
          <mxGeometry x="630" y="-330" width="140" height="80" as="geometry" />
        </mxCell>
        <mxCell id="KKZwdaUDiKassP_woLJ3-24" value="ДА" style="text;html=1;align=center;verticalAlign=middle;resizable=0;points=[];autosize=1;strokeColor=none;fillColor=none;" vertex="1" parent="1">
          <mxGeometry x="730" y="-690" width="40" height="30" as="geometry" />
        </mxCell>
        <mxCell id="KKZwdaUDiKassP_woLJ3-25" value="НЕТ" style="text;html=1;align=center;verticalAlign=middle;resizable=0;points=[];autosize=1;strokeColor=none;fillColor=none;" vertex="1" parent="1">
          <mxGeometry x="520" y="-690" width="50" height="30" as="geometry" />
        </mxCell>
        <mxCell id="KKZwdaUDiKassP_woLJ3-26" value="БЕЖАТЬ" style="text;html=1;align=center;verticalAlign=middle;resizable=0;points=[];autosize=1;strokeColor=none;fillColor=none;" vertex="1" parent="1">
          <mxGeometry x="890" y="-420" width="70" height="30" as="geometry" />
        </mxCell>
        <mxCell id="KKZwdaUDiKassP_woLJ3-27" value="СПРЯТАТЬСЯ" style="text;html=1;align=center;verticalAlign=middle;resizable=0;points=[];autosize=1;strokeColor=none;fillColor=none;" vertex="1" parent="1">
          <mxGeometry x="680" y="-422" width="100" height="30" as="geometry" />
        </mxCell>
        <mxCell id="KKZwdaUDiKassP_woLJ3-33" style="edgeStyle=orthogonalEdgeStyle;rounded=0;orthogonalLoop=1;jettySize=auto;html=1;exitX=0.5;exitY=1;exitDx=0;exitDy=0;entryX=0.625;entryY=0.2;entryDx=0;entryDy=0;entryPerimeter=0;" edge="1" parent="1" source="KKZwdaUDiKassP_woLJ3-9" target="KKZwdaUDiKassP_woLJ3-10">
          <mxGeometry relative="1" as="geometry" />
        </mxCell>
        <mxCell id="KKZwdaUDiKassP_woLJ3-34" value="ДА" style="text;html=1;align=center;verticalAlign=middle;resizable=0;points=[];autosize=1;strokeColor=none;fillColor=none;" vertex="1" parent="1">
          <mxGeometry x="460" y="-912" width="40" height="30" as="geometry" />
        </mxCell>
        <mxCell id="KKZwdaUDiKassP_woLJ3-35" value="НЕТ" style="text;html=1;align=center;verticalAlign=middle;resizable=0;points=[];autosize=1;strokeColor=none;fillColor=none;" vertex="1" parent="1">
          <mxGeometry x="245" y="-912" width="50" height="30" as="geometry" />
        </mxCell>
        <mxCell id="KKZwdaUDiKassP_woLJ3-44" style="edgeStyle=orthogonalEdgeStyle;rounded=0;orthogonalLoop=1;jettySize=auto;html=1;exitX=0.5;exitY=1;exitDx=0;exitDy=0;" edge="1" parent="1" source="KKZwdaUDiKassP_woLJ3-36" target="KKZwdaUDiKassP_woLJ3-37">
          <mxGeometry relative="1" as="geometry" />
        </mxCell>
        <mxCell id="KKZwdaUDiKassP_woLJ3-36" value="Вы вышли из маршрутки и увидели, что стоите на углу двух улиц, которые оказались вам знакомы" style="rounded=0;whiteSpace=wrap;html=1;" vertex="1" parent="1">
          <mxGeometry x="-70" y="-840" width="135" height="70" as="geometry" />
        </mxCell>
        <mxCell id="KKZwdaUDiKassP_woLJ3-41" style="edgeStyle=orthogonalEdgeStyle;rounded=0;orthogonalLoop=1;jettySize=auto;html=1;exitX=1;exitY=0.5;exitDx=0;exitDy=0;entryX=0.5;entryY=0;entryDx=0;entryDy=0;" edge="1" parent="1" source="KKZwdaUDiKassP_woLJ3-37" target="KKZwdaUDiKassP_woLJ3-38">
          <mxGeometry relative="1" as="geometry" />
        </mxCell>
        <mxCell id="KKZwdaUDiKassP_woLJ3-74" style="edgeStyle=orthogonalEdgeStyle;rounded=0;orthogonalLoop=1;jettySize=auto;html=1;exitX=0;exitY=0.5;exitDx=0;exitDy=0;entryX=0.5;entryY=0;entryDx=0;entryDy=0;" edge="1" parent="1" source="KKZwdaUDiKassP_woLJ3-37" target="KKZwdaUDiKassP_woLJ3-48">
          <mxGeometry relative="1" as="geometry" />
        </mxCell>
        <mxCell id="KKZwdaUDiKassP_woLJ3-37" value="Куда идти?" style="rhombus;whiteSpace=wrap;html=1;" vertex="1" parent="1">
          <mxGeometry x="-42.5" y="-730" width="80" height="80" as="geometry" />
        </mxCell>
        <mxCell id="KKZwdaUDiKassP_woLJ3-42" style="edgeStyle=orthogonalEdgeStyle;rounded=0;orthogonalLoop=1;jettySize=auto;html=1;exitX=0.5;exitY=1;exitDx=0;exitDy=0;entryX=0.5;entryY=0;entryDx=0;entryDy=0;" edge="1" parent="1" source="KKZwdaUDiKassP_woLJ3-38" target="KKZwdaUDiKassP_woLJ3-39">
          <mxGeometry relative="1" as="geometry" />
        </mxCell>
        <mxCell id="KKZwdaUDiKassP_woLJ3-38" value="Вы выбрали короткий, но плохо освещенный путь" style="rounded=0;whiteSpace=wrap;html=1;" vertex="1" parent="1">
          <mxGeometry x="90" y="-668" width="120" height="60" as="geometry" />
        </mxCell>
        <mxCell id="KKZwdaUDiKassP_woLJ3-39" value="&lt;font face=&quot;Calibri, sans-serif&quot;&gt;&lt;span style=&quot;font-size: 10pt;&quot;&gt;Вы идете по дороге но вдруг слышите странную музыку? . Обернувшись вы &lt;/span&gt;&lt;span style=&quot;font-size: 13.3333px;&quot;&gt;видите&amp;nbsp;&lt;/span&gt;&lt;/font&gt;&lt;font face=&quot;Calibri, sans-serif&quot;&gt;&lt;span style=&quot;font-size: 13.3333px;&quot;&gt;женщину&lt;/span&gt;&lt;span style=&quot;font-size: 10pt;&quot;&gt;&amp;nbsp;которая &lt;/span&gt;&lt;span style=&quot;font-size: 13.3333px;&quot;&gt;танцует&lt;/span&gt;&lt;span style=&quot;font-size: 10pt;&quot;&gt;&amp;nbsp;&lt;/span&gt;&lt;span style=&quot;font-size: 13.3333px;&quot;&gt;поворачиваясь&lt;/span&gt;&lt;span style=&quot;font-size: 10pt;&quot;&gt;&amp;nbsp;из стороны в сторону... И тут она&amp;nbsp;&lt;/span&gt;&lt;/font&gt;&lt;font face=&quot;Calibri, sans-serif&quot;&gt;&lt;span style=&quot;font-size: 13.3333px;&quot;&gt;замечает вас и начинает&amp;nbsp;бежать в вашу сторону.&lt;/span&gt;&lt;/font&gt;" style="rounded=0;whiteSpace=wrap;html=1;" vertex="1" parent="1">
          <mxGeometry x="30" y="-585" width="255" height="120" as="geometry" />
        </mxCell>
        <mxCell id="KKZwdaUDiKassP_woLJ3-40" value="Вы бежали изо всех сил, но&amp;nbsp;&lt;div&gt;женщина всё равно вас нагнала.&lt;/div&gt;&lt;div&gt;Смерть.&lt;/div&gt;" style="ellipse;shape=cloud;whiteSpace=wrap;html=1;" vertex="1" parent="1">
          <mxGeometry x="52.5" y="-422" width="210" height="110" as="geometry" />
        </mxCell>
        <mxCell id="KKZwdaUDiKassP_woLJ3-43" style="edgeStyle=orthogonalEdgeStyle;rounded=0;orthogonalLoop=1;jettySize=auto;html=1;exitX=0.5;exitY=1;exitDx=0;exitDy=0;entryX=0.625;entryY=0.2;entryDx=0;entryDy=0;entryPerimeter=0;" edge="1" parent="1" source="KKZwdaUDiKassP_woLJ3-39" target="KKZwdaUDiKassP_woLJ3-40">
          <mxGeometry relative="1" as="geometry" />
        </mxCell>
        <mxCell id="KKZwdaUDiKassP_woLJ3-46" value="Короткий путь через дворы" style="text;html=1;align=center;verticalAlign=middle;resizable=0;points=[];autosize=1;strokeColor=none;fillColor=none;" vertex="1" parent="1">
          <mxGeometry x="37.5" y="-720" width="180" height="30" as="geometry" />
        </mxCell>
        <mxCell id="KKZwdaUDiKassP_woLJ3-76" style="edgeStyle=orthogonalEdgeStyle;rounded=0;orthogonalLoop=1;jettySize=auto;html=1;exitX=0.5;exitY=1;exitDx=0;exitDy=0;entryX=0.5;entryY=0;entryDx=0;entryDy=0;" edge="1" parent="1" source="KKZwdaUDiKassP_woLJ3-48" target="KKZwdaUDiKassP_woLJ3-49">
          <mxGeometry relative="1" as="geometry" />
        </mxCell>
        <mxCell id="KKZwdaUDiKassP_woLJ3-48" value="Вы пошли по главной улице, хоть дорога и займет на 10 минут дольше, и успешно добрались до дома." style="rounded=0;whiteSpace=wrap;html=1;" vertex="1" parent="1">
          <mxGeometry x="-310" y="-668" width="160" height="90" as="geometry" />
        </mxCell>
        <mxCell id="KKZwdaUDiKassP_woLJ3-77" style="edgeStyle=orthogonalEdgeStyle;rounded=0;orthogonalLoop=1;jettySize=auto;html=1;exitX=1;exitY=0.5;exitDx=0;exitDy=0;entryX=0.5;entryY=0;entryDx=0;entryDy=0;" edge="1" parent="1" source="KKZwdaUDiKassP_woLJ3-49" target="KKZwdaUDiKassP_woLJ3-50">
          <mxGeometry relative="1" as="geometry" />
        </mxCell>
        <mxCell id="KKZwdaUDiKassP_woLJ3-78" style="edgeStyle=orthogonalEdgeStyle;rounded=0;orthogonalLoop=1;jettySize=auto;html=1;exitX=0;exitY=0.5;exitDx=0;exitDy=0;entryX=0.5;entryY=0;entryDx=0;entryDy=0;" edge="1" parent="1" source="KKZwdaUDiKassP_woLJ3-49" target="KKZwdaUDiKassP_woLJ3-51">
          <mxGeometry relative="1" as="geometry" />
        </mxCell>
        <mxCell id="KKZwdaUDiKassP_woLJ3-49" value="Чем займетесь?" style="rhombus;whiteSpace=wrap;html=1;" vertex="1" parent="1">
          <mxGeometry x="-280" y="-547" width="100" height="100" as="geometry" />
        </mxCell>
        <mxCell id="KKZwdaUDiKassP_woLJ3-82" style="edgeStyle=orthogonalEdgeStyle;rounded=0;orthogonalLoop=1;jettySize=auto;html=1;exitX=0.5;exitY=1;exitDx=0;exitDy=0;entryX=0.5;entryY=0;entryDx=0;entryDy=0;" edge="1" parent="1" source="KKZwdaUDiKassP_woLJ3-50" target="KKZwdaUDiKassP_woLJ3-55">
          <mxGeometry relative="1" as="geometry" />
        </mxCell>
        <mxCell id="KKZwdaUDiKassP_woLJ3-50" value="Вы решили посмотреть парочку серий перед сном своего любимого сериала." style="rounded=0;whiteSpace=wrap;html=1;" vertex="1" parent="1">
          <mxGeometry x="-160" y="-470" width="150" height="80" as="geometry" />
        </mxCell>
        <mxCell id="KKZwdaUDiKassP_woLJ3-81" style="edgeStyle=orthogonalEdgeStyle;rounded=0;orthogonalLoop=1;jettySize=auto;html=1;exitX=0.5;exitY=1;exitDx=0;exitDy=0;entryX=0.5;entryY=0;entryDx=0;entryDy=0;" edge="1" parent="1" source="KKZwdaUDiKassP_woLJ3-51" target="KKZwdaUDiKassP_woLJ3-55">
          <mxGeometry relative="1" as="geometry" />
        </mxCell>
        <mxCell id="KKZwdaUDiKassP_woLJ3-51" value="Вы решили принять душ и смыть с себя всё, что накопилось за целый рабочий день" style="rounded=0;whiteSpace=wrap;html=1;" vertex="1" parent="1">
          <mxGeometry x="-480" y="-465" width="150" height="70" as="geometry" />
        </mxCell>
        <mxCell id="KKZwdaUDiKassP_woLJ3-52" value="Смерть" style="ellipse;shape=cloud;whiteSpace=wrap;html=1;" vertex="1" parent="1">
          <mxGeometry x="770" y="-160" width="120" height="80" as="geometry" />
        </mxCell>
        <mxCell id="KKZwdaUDiKassP_woLJ3-53" style="edgeStyle=orthogonalEdgeStyle;rounded=0;orthogonalLoop=1;jettySize=auto;html=1;exitX=0.5;exitY=1;exitDx=0;exitDy=0;entryX=0.4;entryY=0.1;entryDx=0;entryDy=0;entryPerimeter=0;" edge="1" parent="1" source="KKZwdaUDiKassP_woLJ3-15" target="KKZwdaUDiKassP_woLJ3-52">
          <mxGeometry relative="1" as="geometry" />
        </mxCell>
        <mxCell id="KKZwdaUDiKassP_woLJ3-54" style="edgeStyle=orthogonalEdgeStyle;rounded=0;orthogonalLoop=1;jettySize=auto;html=1;exitX=0.5;exitY=1;exitDx=0;exitDy=0;entryX=0.625;entryY=0.2;entryDx=0;entryDy=0;entryPerimeter=0;" edge="1" parent="1" source="KKZwdaUDiKassP_woLJ3-14" target="KKZwdaUDiKassP_woLJ3-52">
          <mxGeometry relative="1" as="geometry" />
        </mxCell>
        <mxCell id="KKZwdaUDiKassP_woLJ3-83" style="edgeStyle=orthogonalEdgeStyle;rounded=0;orthogonalLoop=1;jettySize=auto;html=1;exitX=0.5;exitY=1;exitDx=0;exitDy=0;entryX=0.5;entryY=0;entryDx=0;entryDy=0;" edge="1" parent="1" source="KKZwdaUDiKassP_woLJ3-55" target="KKZwdaUDiKassP_woLJ3-56">
          <mxGeometry relative="1" as="geometry" />
        </mxCell>
        <mxCell id="KKZwdaUDiKassP_woLJ3-55" value="Внезапно отключается электричество. &quot;Опять пробки вырубило что-ли!?&quot;&amp;nbsp;" style="rounded=0;whiteSpace=wrap;html=1;" vertex="1" parent="1">
          <mxGeometry x="-310" y="-340" width="140" height="80" as="geometry" />
        </mxCell>
        <mxCell id="KKZwdaUDiKassP_woLJ3-84" style="edgeStyle=orthogonalEdgeStyle;rounded=0;orthogonalLoop=1;jettySize=auto;html=1;exitX=0.5;exitY=1;exitDx=0;exitDy=0;entryX=0.5;entryY=0;entryDx=0;entryDy=0;" edge="1" parent="1" source="KKZwdaUDiKassP_woLJ3-56" target="KKZwdaUDiKassP_woLJ3-57">
          <mxGeometry relative="1" as="geometry" />
        </mxCell>
        <mxCell id="KKZwdaUDiKassP_woLJ3-56" value="Счетчик находится в подвале, около входной двери." style="whiteSpace=wrap;html=1;" vertex="1" parent="1">
          <mxGeometry x="-300" y="-230" width="120" height="60" as="geometry" />
        </mxCell>
        <mxCell id="KKZwdaUDiKassP_woLJ3-85" style="edgeStyle=orthogonalEdgeStyle;rounded=0;orthogonalLoop=1;jettySize=auto;html=1;entryX=0.5;entryY=0;entryDx=0;entryDy=0;" edge="1" parent="1" source="KKZwdaUDiKassP_woLJ3-57" target="KKZwdaUDiKassP_woLJ3-58">
          <mxGeometry relative="1" as="geometry" />
        </mxCell>
        <mxCell id="KKZwdaUDiKassP_woLJ3-89" style="edgeStyle=orthogonalEdgeStyle;rounded=0;orthogonalLoop=1;jettySize=auto;html=1;exitX=0;exitY=0.5;exitDx=0;exitDy=0;entryX=0.5;entryY=0;entryDx=0;entryDy=0;" edge="1" parent="1" source="KKZwdaUDiKassP_woLJ3-57" target="KKZwdaUDiKassP_woLJ3-61">
          <mxGeometry relative="1" as="geometry" />
        </mxCell>
        <mxCell id="KKZwdaUDiKassP_woLJ3-57" value="Брать фонарик?" style="rhombus;whiteSpace=wrap;html=1;" vertex="1" parent="1">
          <mxGeometry x="-280" y="-150" width="80" height="80" as="geometry" />
        </mxCell>
        <mxCell id="KKZwdaUDiKassP_woLJ3-87" style="edgeStyle=orthogonalEdgeStyle;rounded=0;orthogonalLoop=1;jettySize=auto;html=1;exitX=0.5;exitY=1;exitDx=0;exitDy=0;entryX=0.5;entryY=0;entryDx=0;entryDy=0;" edge="1" parent="1" source="KKZwdaUDiKassP_woLJ3-58" target="KKZwdaUDiKassP_woLJ3-59">
          <mxGeometry relative="1" as="geometry" />
        </mxCell>
        <mxCell id="KKZwdaUDiKassP_woLJ3-58" value="Вы решаете не брать фонарик, так как уже не раз включали пробки в полной темноте" style="rounded=0;whiteSpace=wrap;html=1;" vertex="1" parent="1">
          <mxGeometry x="-160" y="-90" width="140" height="80" as="geometry" />
        </mxCell>
        <mxCell id="KKZwdaUDiKassP_woLJ3-59" value="Когда вы спустились вниз, то обнаружили в глубине подвала 2 светящиеся точки, похожие на глаза. Спустя секунду, когда вы ещё не смогли ничего понять, обладатель этих глаз разрывал вас на части." style="whiteSpace=wrap;html=1;" vertex="1" parent="1">
          <mxGeometry x="-180" y="10" width="187.5" height="117.5" as="geometry" />
        </mxCell>
        <mxCell id="KKZwdaUDiKassP_woLJ3-60" value="Смерть" style="ellipse;shape=cloud;whiteSpace=wrap;html=1;" vertex="1" parent="1">
          <mxGeometry x="-125" y="150" width="120" height="80" as="geometry" />
        </mxCell>
        <mxCell id="KKZwdaUDiKassP_woLJ3-90" style="edgeStyle=orthogonalEdgeStyle;rounded=0;orthogonalLoop=1;jettySize=auto;html=1;entryX=0.5;entryY=0;entryDx=0;entryDy=0;" edge="1" parent="1" source="KKZwdaUDiKassP_woLJ3-61" target="KKZwdaUDiKassP_woLJ3-62">
          <mxGeometry relative="1" as="geometry" />
        </mxCell>
        <mxCell id="KKZwdaUDiKassP_woLJ3-61" value="Хоть вы не раз чинили пробки без какого-либо света, но в этот раз вы решаетесь взять с собой фонарик." style="rounded=0;whiteSpace=wrap;html=1;" vertex="1" parent="1">
          <mxGeometry x="-460" y="-80" width="140" height="90" as="geometry" />
        </mxCell>
        <mxCell id="KKZwdaUDiKassP_woLJ3-91" style="edgeStyle=orthogonalEdgeStyle;rounded=0;orthogonalLoop=1;jettySize=auto;html=1;entryX=0.5;entryY=0;entryDx=0;entryDy=0;" edge="1" parent="1" source="KKZwdaUDiKassP_woLJ3-62" target="KKZwdaUDiKassP_woLJ3-63">
          <mxGeometry relative="1" as="geometry" />
        </mxCell>
        <mxCell id="KKZwdaUDiKassP_woLJ3-62" value="Пробки снова включены, свет есть, можно идти обратно.&amp;nbsp;" style="rounded=0;whiteSpace=wrap;html=1;" vertex="1" parent="1">
          <mxGeometry x="-450" y="45" width="120" height="60" as="geometry" />
        </mxCell>
        <mxCell id="KKZwdaUDiKassP_woLJ3-92" style="edgeStyle=orthogonalEdgeStyle;rounded=0;orthogonalLoop=1;jettySize=auto;html=1;entryX=0.5;entryY=0;entryDx=0;entryDy=0;" edge="1" parent="1" source="KKZwdaUDiKassP_woLJ3-63" target="KKZwdaUDiKassP_woLJ3-66">
          <mxGeometry relative="1" as="geometry" />
        </mxCell>
        <mxCell id="KKZwdaUDiKassP_woLJ3-63" value="Как только вы поднимаетесь на верх, то видите какое-то существо, смутно похожее на человека, которое стоит в другом конце коридора." style="rounded=0;whiteSpace=wrap;html=1;" vertex="1" parent="1">
          <mxGeometry x="-475" y="132.5" width="170" height="115" as="geometry" />
        </mxCell>
        <mxCell id="KKZwdaUDiKassP_woLJ3-96" style="edgeStyle=orthogonalEdgeStyle;rounded=0;orthogonalLoop=1;jettySize=auto;html=1;exitX=0.5;exitY=1;exitDx=0;exitDy=0;entryX=0.5;entryY=0;entryDx=0;entryDy=0;" edge="1" parent="1" source="KKZwdaUDiKassP_woLJ3-65" target="KKZwdaUDiKassP_woLJ3-68">
          <mxGeometry relative="1" as="geometry" />
        </mxCell>
        <mxCell id="KKZwdaUDiKassP_woLJ3-65" value="Вы сразу же достаете телефон, для того, чтобы вызвать полицию, но связи нет..." style="rounded=0;whiteSpace=wrap;html=1;" vertex="1" parent="1">
          <mxGeometry x="-310" y="375" width="150" height="75" as="geometry" />
        </mxCell>
        <mxCell id="KKZwdaUDiKassP_woLJ3-93" style="edgeStyle=orthogonalEdgeStyle;rounded=0;orthogonalLoop=1;jettySize=auto;html=1;exitX=1;exitY=0.5;exitDx=0;exitDy=0;entryX=0.5;entryY=0;entryDx=0;entryDy=0;" edge="1" parent="1" source="KKZwdaUDiKassP_woLJ3-66" target="KKZwdaUDiKassP_woLJ3-65">
          <mxGeometry relative="1" as="geometry" />
        </mxCell>
        <mxCell id="KKZwdaUDiKassP_woLJ3-94" style="edgeStyle=orthogonalEdgeStyle;rounded=0;orthogonalLoop=1;jettySize=auto;html=1;exitX=0;exitY=0.5;exitDx=0;exitDy=0;entryX=0.5;entryY=0;entryDx=0;entryDy=0;" edge="1" parent="1" source="KKZwdaUDiKassP_woLJ3-66" target="KKZwdaUDiKassP_woLJ3-67">
          <mxGeometry relative="1" as="geometry" />
        </mxCell>
        <mxCell id="KKZwdaUDiKassP_woLJ3-66" value="Что делать?" style="rhombus;whiteSpace=wrap;html=1;" vertex="1" parent="1">
          <mxGeometry x="-430" y="290" width="80" height="80" as="geometry" />
        </mxCell>
        <mxCell id="KKZwdaUDiKassP_woLJ3-95" style="edgeStyle=orthogonalEdgeStyle;rounded=0;orthogonalLoop=1;jettySize=auto;html=1;exitX=0.5;exitY=1;exitDx=0;exitDy=0;entryX=0.5;entryY=0;entryDx=0;entryDy=0;" edge="1" parent="1" source="KKZwdaUDiKassP_woLJ3-67" target="KKZwdaUDiKassP_woLJ3-68">
          <mxGeometry relative="1" as="geometry" />
        </mxCell>
        <mxCell id="KKZwdaUDiKassP_woLJ3-67" value="Вы хватаете настольную лампу, стоявшую рядом и уже готовы обороняться" style="rounded=0;whiteSpace=wrap;html=1;" vertex="1" parent="1">
          <mxGeometry x="-620" y="380" width="140" height="70" as="geometry" />
        </mxCell>
        <mxCell id="KKZwdaUDiKassP_woLJ3-97" style="edgeStyle=orthogonalEdgeStyle;rounded=0;orthogonalLoop=1;jettySize=auto;html=1;exitX=0.5;exitY=1;exitDx=0;exitDy=0;entryX=0.5;entryY=0;entryDx=0;entryDy=0;" edge="1" parent="1" source="KKZwdaUDiKassP_woLJ3-68" target="KKZwdaUDiKassP_woLJ3-69">
          <mxGeometry relative="1" as="geometry" />
        </mxCell>
        <mxCell id="KKZwdaUDiKassP_woLJ3-68" value="Существо начинает приближаться" style="rounded=0;whiteSpace=wrap;html=1;" vertex="1" parent="1">
          <mxGeometry x="-440" y="490" width="120" height="40" as="geometry" />
        </mxCell>
        <mxCell id="KKZwdaUDiKassP_woLJ3-98" style="edgeStyle=orthogonalEdgeStyle;rounded=0;orthogonalLoop=1;jettySize=auto;html=1;" edge="1" parent="1" source="KKZwdaUDiKassP_woLJ3-69" target="KKZwdaUDiKassP_woLJ3-70">
          <mxGeometry relative="1" as="geometry" />
        </mxCell>
        <mxCell id="KKZwdaUDiKassP_woLJ3-69" value="Внезапно в входную дверь, позади вас заходит какой-то мужчина, одетый, словно охотник за нежитью из какого-то сериала или фильма." style="rounded=0;whiteSpace=wrap;html=1;" vertex="1" parent="1">
          <mxGeometry x="-485" y="570" width="210" height="80" as="geometry" />
        </mxCell>
        <mxCell id="KKZwdaUDiKassP_woLJ3-99" style="edgeStyle=orthogonalEdgeStyle;rounded=0;orthogonalLoop=1;jettySize=auto;html=1;" edge="1" parent="1" source="KKZwdaUDiKassP_woLJ3-70" target="KKZwdaUDiKassP_woLJ3-71">
          <mxGeometry relative="1" as="geometry" />
        </mxCell>
        <mxCell id="KKZwdaUDiKassP_woLJ3-70" value="Увидев вас, он явно был удивлен.&lt;div&gt;-Ты не отсюда. Тебе нельзя здесь находится.&lt;/div&gt;" style="whiteSpace=wrap;html=1;" vertex="1" parent="1">
          <mxGeometry x="-455" y="680" width="150" height="80" as="geometry" />
        </mxCell>
        <mxCell id="KKZwdaUDiKassP_woLJ3-100" style="edgeStyle=orthogonalEdgeStyle;rounded=0;orthogonalLoop=1;jettySize=auto;html=1;entryX=0.5;entryY=0;entryDx=0;entryDy=0;" edge="1" parent="1" source="KKZwdaUDiKassP_woLJ3-71" target="KKZwdaUDiKassP_woLJ3-72">
          <mxGeometry relative="1" as="geometry" />
        </mxCell>
        <mxCell id="KKZwdaUDiKassP_woLJ3-71" value="Последнее, что вы помните, это то, что незнакомец распыляет какой-то порошок на вас. И вот вы уже снова в маршрутке, а вас трясет водитель.&lt;div&gt;-Девушка! Конечная!&lt;/div&gt;&lt;div&gt;-А да, извините.&lt;/div&gt;&lt;div&gt;Вы встаете, берёте свою сумку и выходите из салона, направляясь домой, всё еще находясь в потрясении от такого странного сна.&lt;/div&gt;" style="rounded=0;whiteSpace=wrap;html=1;" vertex="1" parent="1">
          <mxGeometry x="-520" y="790" width="280" height="170" as="geometry" />
        </mxCell>
        <mxCell id="KKZwdaUDiKassP_woLJ3-101" style="edgeStyle=orthogonalEdgeStyle;rounded=0;orthogonalLoop=1;jettySize=auto;html=1;" edge="1" parent="1" source="KKZwdaUDiKassP_woLJ3-72" target="KKZwdaUDiKassP_woLJ3-73">
          <mxGeometry relative="1" as="geometry" />
        </mxCell>
        <mxCell id="KKZwdaUDiKassP_woLJ3-72" value="Или не сна?.." style="rounded=0;whiteSpace=wrap;html=1;" vertex="1" parent="1">
          <mxGeometry x="-440" y="990" width="120" height="60" as="geometry" />
        </mxCell>
        <mxCell id="KKZwdaUDiKassP_woLJ3-73" value="КОНЕЦ" style="shape=document;whiteSpace=wrap;html=1;boundedLbl=1;" vertex="1" parent="1">
          <mxGeometry x="-440" y="1089" width="120" height="80" as="geometry" />
        </mxCell>
        <mxCell id="KKZwdaUDiKassP_woLJ3-75" value="Главная дорога" style="text;html=1;align=center;verticalAlign=middle;whiteSpace=wrap;rounded=0;" vertex="1" parent="1">
          <mxGeometry x="-170" y="-730" width="60" height="30" as="geometry" />
        </mxCell>
        <mxCell id="KKZwdaUDiKassP_woLJ3-79" value="Сериал" style="text;html=1;align=center;verticalAlign=middle;resizable=0;points=[];autosize=1;strokeColor=none;fillColor=none;" vertex="1" parent="1">
          <mxGeometry x="-175" y="-532" width="70" height="30" as="geometry" />
        </mxCell>
        <mxCell id="KKZwdaUDiKassP_woLJ3-80" value="Душ" style="text;html=1;align=center;verticalAlign=middle;resizable=0;points=[];autosize=1;strokeColor=none;fillColor=none;" vertex="1" parent="1">
          <mxGeometry x="-375" y="-542" width="50" height="30" as="geometry" />
        </mxCell>
        <mxCell id="KKZwdaUDiKassP_woLJ3-86" value="НЕТ" style="text;html=1;align=center;verticalAlign=middle;resizable=0;points=[];autosize=1;strokeColor=none;fillColor=none;" vertex="1" parent="1">
          <mxGeometry x="-175" y="-152" width="50" height="30" as="geometry" />
        </mxCell>
        <mxCell id="KKZwdaUDiKassP_woLJ3-88" style="edgeStyle=orthogonalEdgeStyle;rounded=0;orthogonalLoop=1;jettySize=auto;html=1;exitX=0.5;exitY=1;exitDx=0;exitDy=0;entryX=0.4;entryY=0.1;entryDx=0;entryDy=0;entryPerimeter=0;" edge="1" parent="1" source="KKZwdaUDiKassP_woLJ3-59" target="KKZwdaUDiKassP_woLJ3-60">
          <mxGeometry relative="1" as="geometry" />
        </mxCell>
        <mxCell id="KKZwdaUDiKassP_woLJ3-102" value="Позвонить в полицию" style="text;html=1;align=center;verticalAlign=middle;resizable=0;points=[];autosize=1;strokeColor=none;fillColor=none;" vertex="1" parent="1">
          <mxGeometry x="-380" y="288" width="140" height="30" as="geometry" />
        </mxCell>
        <mxCell id="KKZwdaUDiKassP_woLJ3-103" value="Защищаться" style="text;html=1;align=center;verticalAlign=middle;resizable=0;points=[];autosize=1;strokeColor=none;fillColor=none;" vertex="1" parent="1">
          <mxGeometry x="-545" y="298" width="90" height="30" as="geometry" />
        </mxCell>
      </root>
    </mxGraphModel>
  </diagram>
</mxfile>
